<svg xmlns="http://www.w3.org/2000/svg" width="1366" height="476.95" viewBox="0 0 1366 476.95"><defs><style>.a{fill:#e8657c;}.b{fill:#cc5a73;}</style></defs><title>Artboard 18</title><path class="a" d="M171.11,323.05c-2.63-2.22-5.15-4.5-7.53-6.83-21.25-20.71-32.48-45.15-32.48-70.68,0-71.75,88.55-128,201.59-128s201.59,56.21,201.59,128-88.55,128-201.59,128A314.49,314.49,0,0,1,263.45,366l-118.4,48.9Z"/><path class="b" d="M332.69,142.58c97.53,0,176.59,46.1,176.59,103s-79.06,103-176.59,103a287.25,287.25,0,0,1-71-8.66l-.27-.07-78.23,32.31,16.66-58.71-.18-.12L197.79,312A128.42,128.42,0,0,1,181,298.32c-15.83-15.43-24.93-33.48-24.93-52.78,0-56.86,79.06-103,176.59-103m0-50c-55.88,0-109.17,13.13-150,37-22.26,13-40.14,28.65-53.14,46.57-15.31,21.1-23.4,45.11-23.4,69.43,0,31.07,12.71,60.49,36.8,85.35l-7.82,27.55-28.16,99.25,95.35-39.39,63.56-26.25a342.31,342.31,0,0,0,66.86,6.46c55.88,0,109.17-13.13,150.05-37,22.26-13,40.14-28.64,53.14-46.56,15.31-21.11,23.4-45.12,23.4-69.44s-8.09-48.33-23.4-69.43c-13-17.92-30.88-33.59-53.14-46.57-40.88-23.83-94.17-37-150-37Z"/><path class="a" d="M997.11,413.23c-62.85,0-122.32-14.49-167.44-40.8-49.37-28.78-76.55-68.52-76.55-111.88,0-30,13.3-58.82,38.46-83.35q5.61-5.47,12-10.64l-30-105.74,137.14,56.65a382.65,382.65,0,0,1,86.39-9.61c62.85,0,122.31,14.49,167.44,40.8,49.36,28.78,76.55,68.52,76.55,111.89s-27.19,83.1-76.55,111.88C1119.42,398.74,1060,413.23,997.11,413.23Z"/><path class="b" d="M811.71,103.62l97,40.07.33-.09a356.62,356.62,0,0,1,88.06-10.74c120.94,0,219,57.17,219,127.69s-98,127.68-219,127.68-219-57.16-219-127.68c0-23.93,11.28-46.31,30.92-65.45a159.21,159.21,0,0,1,20.78-17l2.32-1.57.22-.15-20.65-72.8M735.44,18l28.17,99.25,11.62,41-1.1,1.06c-30.1,29.35-46,64.36-46,101.26,0,27.61,9.24,54.94,26.73,79.06C770,360.47,790.92,378.78,817.07,394c48.89,28.5,112.83,44.2,180,44.2s131.14-15.7,180-44.2c26.15-15.25,47.09-33.56,62.22-54.42,17.49-24.12,26.74-51.45,26.74-79.06s-9.25-55-26.74-79.06c-15.14-20.87-36.07-39.18-62.22-54.42-48.89-28.51-112.83-44.21-180-44.21a411.28,411.28,0,0,0-84.1,8.5L830.79,57.41,735.44,18Z"/></svg>