<svg xmlns="http://www.w3.org/2000/svg" viewBox="0 0 200 71.81"><defs><style>.cls-1{fill:#774a58;}.cls-2{fill:#fff;}.cls-3{fill:#e8657c;}</style></defs><title>logo</title><g id="Logo"><rect class="cls-1" x="4.5" y="7.78" width="176.48" height="61.67" rx="16.18" ry="16.18"/><polygon class="cls-2" points="46.67 30.45 45.91 24.09 26.31 24.09 26.31 54.27 34.4 54.27 34.4 42.85 44.45 42.85 43.69 36.49 34.4 36.49 34.4 30.45 46.67 30.45"/><polygon class="cls-2" points="51.11 54.27 59.2 54.27 59.2 22.89 51.11 23.38 51.11 54.27"/><path class="cls-2" d="M79.56,47.25a16.62,16.62,0,0,1-2.36.87,7.65,7.65,0,0,1-2,.37,2.06,2.06,0,0,1-1.78-.73,3.08,3.08,0,0,1-.53-1.84V32.76H64.8V46.67a9,9,0,0,0,2,6.07C68.06,54.27,70,55,72.62,55a16.81,16.81,0,0,0,8.8-2.94l2.32,2.23h3.91V32.76H79.56Z"/><path class="cls-2" d="M108.89,33.47A10.14,10.14,0,0,0,103.25,32a12.52,12.52,0,0,0-5.94,1.4,10.23,10.23,0,0,0-4.15,4,12.07,12.07,0,0,0-1.51,6.14,11,11,0,0,0,1.64,6.11,10.18,10.18,0,0,0,4.56,3.84,16.35,16.35,0,0,0,6.68,1.29,19.76,19.76,0,0,0,5.14-.67,11.58,11.58,0,0,0,3.84-1.64L111.25,47a12.75,12.75,0,0,1-5.92,1.47,5.93,5.93,0,0,1-3.22-.78,3.87,3.87,0,0,1-1.66-2.15h13.11V43.16a13.3,13.3,0,0,0-1.18-5.64A9.6,9.6,0,0,0,108.89,33.47Zm-8.67,8.05a2.93,2.93,0,0,1,.82-2.14,2.65,2.65,0,0,1,2-.93,2.42,2.42,0,0,1,2.09,1,3.45,3.45,0,0,1,.71,2.09Z"/><path class="cls-2" d="M132.58,32a16.79,16.79,0,0,0-8.8,2.93l-1.42-2.22h-4.8V54.27h8.09V39.78a17.8,17.8,0,0,1,2.35-.86,7.83,7.83,0,0,1,2-.38,2.06,2.06,0,0,1,1.78.73,3.11,3.11,0,0,1,.53,1.85V54.27h8.09V40.36a9.05,9.05,0,0,0-2-6.07A7.32,7.32,0,0,0,132.58,32Z"/><rect class="cls-3" x="149.06" y="4.93" width="44.7" height="31.72" transform="translate(-1.26 20.71) rotate(-6.89)"/><path class="cls-2" d="M155.2,33.61V26.67l-5.53.76-2.56.35v5.83h-3.33V40h3.33v6.22a7.8,7.8,0,0,0,1.4,4.69,8.58,8.58,0,0,0,3.71,2.91,12.5,12.5,0,0,0,5,1,10.52,10.52,0,0,0,3.31-.6,8.25,8.25,0,0,0,2.64-1.31l-2.31-5.51a6.29,6.29,0,0,1-3.11.84,2.36,2.36,0,0,1-1.84-.77,3.09,3.09,0,0,1-.69-2.12V40h6.4l-.24-2-.52-4.33Z"/><polygon class="cls-2" points="172.29 18.72 168.01 19.29 167.37 14.54 163.05 15.12 163.69 19.87 159.12 20.48 159.9 24.12 164.18 23.54 164.85 28.52 169.19 28.15 168.5 22.96 173.04 22.35 172.29 18.72"/><polygon class="cls-2" points="177.89 29.23 182.57 28.6 180.13 10.47 175.5 11.38 177.89 29.23"/></g></svg>